<svg width="640" height="480" viewBox="0 0 640 480" fill="none" xmlns="http://www.w3.org/2000/svg">
<rect width="640" height="480" rx="32" fill="url(#g)"/>
<circle cx="520" cy="120" r="68" fill="url(#p1)" fill-opacity="0.9"/>
<circle cx="140" cy="360" r="84" fill="url(#p2)" fill-opacity="0.9"/>
<g filter="url(#shadow)">
<path d="M160 160c0-22.091 17.909-40 40-40h240c22.091 0 40 17.909 40 40v160c0 22.091-17.909 40-40 40H200c-22.091 0-40-17.909-40-40V160z" fill="#fff" fill-opacity="0.15" stroke="rgba(255,255,255,0.4)" stroke-width="2"/>
</g>
<path d="M230 210h180M230 252h180M230 294h140" stroke="#fff" stroke-width="10" stroke-linecap="round" stroke-opacity="0.55"/>
<path d="M240 150c48-32 112-32 160 0" stroke="#fff" stroke-width="10" stroke-linecap="round" stroke-opacity="0.35"/>
<defs>
<linearGradient id="g" x1="0" y1="0" x2="640" y2="480" gradientUnits="userSpaceOnUse">
<stop stop-color="#6366f1"/>
<stop offset="0.5" stop-color="#8b5cf6"/>
<stop offset="1" stop-color="#06b6d4"/>
</linearGradient>
<linearGradient id="p1" x1="452" y1="52" x2="588" y2="188" gradientUnits="userSpaceOnUse">
<stop stop-color="#fff" stop-opacity="0.9"/>
<stop offset="1" stop-color="#fff" stop-opacity="0.1"/>
</linearGradient>
<linearGradient id="p2" x1="56" y1="276" x2="224" y2="444" gradientUnits="userSpaceOnUse">
<stop stop-color="#fff" stop-opacity="0.9"/>
<stop offset="1" stop-color="#fff" stop-opacity="0.1"/>
</linearGradient>
<filter id="shadow" x="140" y="110" width="360" height="300" filterUnits="userSpaceOnUse" color-interpolation-filters="sRGB">
<feFlood flood-opacity="0" result="BackgroundImageFix"/>
<feGaussianBlur in="SourceAlpha" stdDeviation="12"/>
<feOffset dy="4"/>
<feComposite in2="SourceAlpha" operator="out"/>
<feColorMatrix type="matrix" values="0 0 0 0 0 0 0 0 0 0 0 0 0 0 0 0 0 0 0.2 0"/>
<feBlend in2="BackgroundImageFix" result="effect1_dropShadow"/>
<feBlend in="SourceGraphic" in2="effect1_dropShadow" result="shape"/>
</filter>
</defs>
</svg>
